<?xml version="1.0" encoding="utf-8"?>

<!DOCTYPE svg PUBLIC "-//W3C//DTD SVG 1.1//EN" "http://www.w3.org/Graphics/SVG/1.1/DTD/svg11.dtd">
<svg version="1.1" id="Layer_1" xmlns="http://www.w3.org/2000/svg" xmlns:xlink="http://www.w3.org/1999/xlink" x="0px" y="0px"
	 viewBox="0 0 2676.86 766.043" enable-background="new 0 0 2676.86 766.043" xml:space="preserve">
<path d="M1327.011,54.875c24.385,1.988,16.458-4.138,40.72,9.262c45.254,30.995,51.08,55.247,71.637,98.609
	c8.738,25.371,6.292,24.939,10.517,31.834c5.239,8.477,10.464,33.857,10.721,34.862c4.926,23.899,8.3,18.619,8.823,61.19
	c-0.897,85.354-0.799,81.743,0.063,86.68c3.278,2.894,7.192,4.902,10.894,7.2c0.762,0.51,19.993,4.588,20.886,4.714
	c0.133,0.125,0.4,0.376,0.533,0.502c1.001,0.194,84.575,17.074,89.299,15.6c-0.549,0.392-1.106,0.824-0.973,1.553
	c0,0,216.611,20.491,267.953,23.231l0.478,0.369c0,0,75.159,4.363,90.884,4.855c0.016,0.149,0.055,0.463,0.07,0.612
	c0,0,129,5.348,157.87,4.823c1.002,0.006,252.861,1.35,284.634-1.31v-0.408c-2.588-0.078-5.168,0-7.717-0.196
	c8.79-0.921,193.19-6.316,214.872-11.553c5.019-12.447,9.819-24.972,14.768-37.45c1.459-0.204,2.98-0.275,4.486,0.031
	c-0.254,1.012-13.85,51.488-20.078,64.022c-22.639,0.479-39.787,0.298-39.787,0.298c4.125,0.29,8.322-0.376,12.447,0.486
	c-55.541,2.407,3.879-2.11-63.645,5.027c-7.803,1.294-15.819-1.372-23.56,0.714c-3.623,0.918-7.6,0.871-10.792,2.996
	c-5.796,0.369-11.309-2.314-17.09-1.78c-3.437,0.552-31.264,4.481-34.736,4.392c0.416,0.157,0.855,0.322,1.333,0.494
	c-0.064,0.002-61.851,7.79-83.025,9.749c-83.717,9.17-89.967,8.292-87.181,12.753c2.996,7.435,4.965,15.231,6.039,23.176
	c1.843,0.298,3.694,0.612,5.569,0.91c-0.055,0.745-0.094,1.49-0.102,2.243c-1.882,0.024-3.733,0.031-5.568,0.031
	c0.094,5.263,0.604,10.533,0.11,15.788c0.18-1.278,0.306-2.565,0.525-3.827c0.037,11.556,2.454,5.808-3.937,23.537
	c-11.263,31.482-74.683,60.503-98.891-13.294c-0.471-1.506-1.294-2.847-2.212-4.094c-30.802,1.464-4.706-0.2-36.038,2.949
	c-1.549,4.684-0.697,38.075-10.525,37.622c-24.038-33.366-13.019-23.187-18.4-36.062c-5.539,0.313-128.29,7.114-133.157,8.839
	c-0.149,5.31,0.565,10.729-0.863,15.921c-1.874,7.725-2.188,15.921-5.592,23.207c-0.682,1.718-2.863,1.318-4.298,1.561
	c-2.866-5.923-4.787-5.514-16.258-38.305c-5.118-0.599-44.581,1.058-52.618,3.208c-2.259,2.753-4.282,5.765-7.098,7.992
	c-21.528,17.049-12.29,10.933-24.007,14.894c-6.259,2.337-13.027,1.09-19.505,0.925c-22.414-9.407-23.801-16.238-30.666-21.286
	c-0.376,6.941,2.91,13.819,0.831,20.729c-26.352,2.133-52.696,4.282-79.049,6.368c0.51,2.839,0.628,5.733,0.698,8.619
	c57.168,3.202,59.102,1.065,58.634,4.212c-0.181,5.121,2.063,10.415,0.196,15.396c-25.921-2.072-41.011,2.941-58.555,2.361
	c-4.742-1.019-2.28,4.366-5.208,9.474c-6.888-1.201-2.835,2.016-11.819-10.533c-4.329-0.062-97.622,2.825-98.624,2.878
	c-2.745,1.161-2.816,4.58-2.973,7.137c-0.008,5.106-3.176,9.411-5.663,13.631c-0.965,3.827-1.333,7.812-1.812,11.741
	c-4.408,1.341-9.011,1.788-13.513,0.753c-0.847-2.047-1.851-4.016-2.667-6.063c-1.271-3.09-0.243-6.619-1.71-9.655
	c-1.051,0.29-2.078,0.596-3.09,0.91c-0.298,4.855,1.318,9.592,0.918,14.447c0.18-0.761,0.392-1.506,0.627-2.243
	c-0.094,2.078,0.031,4.165,0.267,6.243c0.816,0.706,1.631,1.42,2.486,2.141c5.576-3.404,13.262-1.561,17.686,2.933
	c0.22,12.674-0.078,25.372,0.714,38.03c-0.286,4.124-2.13,7.182-11.215,8.431c-2.353-0.392-4.455-1.608-6.565-2.612
	c-0.565-4.698-0.259-9.717-2.22-14.102c-1.623-0.008-3.231-0.008-4.816,0.024c-0.917-0.588-1.819-1.176-2.69-1.741
	c-0.008-0.565-0.023-1.694-0.031-2.259c-0.337,0.016-1.004,0.055-1.341,0.071c-3.038,5.903,0.92,3.025-16.439,3.976
	c-0.514,8.285,2.305,9.624-5.137,16.619c-4.395,0.15-14.215,0.781-13.655-3.623c0.071-42.596-4.013-52.349,13.639-46.963
	c2.729,2.125,2.894,5.686,3.623,8.8c0.314,0.024,0.926,0.063,1.231,0.086c1.467-9.592,2.306-19.364,1.772-29.066
	c-0.737,0.055-1.451,0.126-2.157,0.196c0.259,4.345-0.11,8.698-1.129,12.941c-1.059,0.878-2.11,1.757-3.153,2.62
	c-4.204,0.063-8.643,1.349-12.533-0.878c-2.744-3.255-0.314-12.879-1.624-27.285c-3.381-0.185-73.688,3.007-74.688,2.988
	c-2.016,0.133-4.541-0.267-5.906,1.584c-3.819,4.549-7.011,9.639-11.364,13.717c-0.847,0.651-0.306,1.741-0.251,2.604
	c2.282,0.345,5.6,0.102,6.541,2.8c3.668,5.724,1.093,26.498,1.247,39.309c-0.959,29.117,1.206,24.424-5.922,27.568
	c-4.031,1.874-7.474-1.945-11.129-3.074c-0.173-4.337-0.439-8.666-0.384-13.004c-3.38-0.659-5.945,2.69-9.317,1.514
	c-0.039-1.553-0.078-3.114-0.071-4.659c-1.788-0.62-3.349,0.565-5.067,0.69c-2.282-1.333-4.298-3.106-6.753-4.11
	c-0.439,2.165,1.514,3.004,3.153,3.733c0.423,1.671,0.431,3.67-1.561,4.267c-1.914-0.604-3.89-0.988-5.827-1.412
	c-0.424,0.251-1.263,0.753-1.686,0.996c-0.25,9.6,1.097,15.224-8.447,15.945c-3.286-0.455-6.023-2.447-8.807-4.07
	c-3.02-9.683-0.75-14.416-1.733-31.058c-5.257-4.92-12.813,2.695-32.14,1.804c-0.235,2.8-0.173,5.616-0.157,8.423
	c-0.455-0.118-1.357-0.369-1.812-0.494c-0.8-2.251-0.118-4.941-0.965-7.27c-10.863,0.326-42.875-2.282-44.548-2.565
	c-1.608-0.635-3.067-1.561-4.667-2.172c-2.235,0.69-4.502,1.192-6.839,0.973c-0.2,25.297,1.278,16.57-0.784,32.015
	c-1.671,1.945-3.678,4.125-6.51,3.835c-9.952-0.435-14.089-1.733-12.76-17.552c-1.357,0.306-2.549,1.004-3.6,1.89
	c-0.667-0.008-1.992-0.016-2.659-0.016c-1.631-1.827,0.102-4.917-2.086-6.219c-0.494,0.204-1.49,0.627-1.984,0.831
	c-0.329,0.792-0.674,1.576-1.027,2.361c-1.38,0.22-2.267-0.447-2.745-1.639c-1.937-0.227-3.451-1.537-5.302-1.992
	c0.91,1.945,2.149,3.827,2.118,6.078c-2.635-0.353-5.231-0.957-7.874-1.169c-1.788,5.168,0.29,11.419-2.964,16.07
	c-3.741,0.996-7.804,0.729-11.662,0.62c-3.576-1.867-5.529-5.819-5.004-9.811c0.91-18.047,0.447-36.156,1.459-54.187
	c0.839-1.78,1.678-3.772,3.27-5.012c2.345-0.588,4.792,0.031,7.192-0.008c-4.596-6.102-8.808-12.478-13.176-18.737
	c-11.655-0.462-71.768-5.24-80.468-4.651c-2.224,6.343,1.849,26.814-4.18,28.58c-9.513,0.412-14.196,0.635-14.196-3.082
	c-0.494-4.368-1.522-8.714-1.239-13.129c-0.714,0.055-1.412,0.118-2.102,0.18c-0.737,2.196-0.055,4.376,0.471,6.533
	c-2.784,13.069-0.287,17.035-0.643,24.58c-1.937,0.063-3.819,0.431-5.631,1.051c0.008,0.973,0.024,1.953,0.063,2.949
	c2.455-0.196,6.682,1.639,7.647-1.584c0.298-3.796,0.298-7.623,1.184-11.341c3.937-3.686,9.592-3.145,14.384-1.804
	c1.145,1.302,2.267,2.635,3.333,4.031c-0.361,54.827,1.549,37.262-5.012,46.704c-2.933,0.125-5.866,0.071-8.792,0.141
	c-9.322-9.027-4.18-8.388-5.6-18.266c-1.686,0.11-3.2,0.792-4.455,1.89c-1.749-0.714-3.239-1.882-4.219-3.498
	c-0.306,0.047-0.933,0.133-1.247,0.173c-0.267,0.847-0.58,1.678-0.941,2.494c-2.071,0.902-3.953-1.851-5.812-0.267
	c-2.996,1.819-6.62,0.823-9.906,1.067c-0.471,4.227,1.106,8.996-1.169,12.854c-4.078,2.878-9.615,1.992-14.321,1.772
	c-4.482-5.94-3.137-3.965-3.349-33.944c-0.133-4.141,0.439-8.282,1.49-12.274c2.4-1.341,4.361-4.314,7.459-3.592
	c3.906,0.525,8.408,1.035,10.525,4.878c0.039,3.592,0.016,7.184,0.024,10.784c0.941-0.133,1.906-0.251,2.878-0.361
	c0.674-1.137,1.867-2.094,1.929-3.49c-0.8-0.871-1.78-1.506-2.627-2.29c-0.157-1.098-0.125-2.18-0.133-3.263
	c0.62-0.682,1.255-1.349,1.898-2.016c-0.055-1.969-0.651-3.819-1.467-5.584c2.078-5.349,1.098-11.129,1.365-16.713
	c-1.145-0.761-2.408-1.247-3.78-1.012c-1.357,4.549,0.016,9.451-1.835,13.898c-1.278,0.823-2.463,2.157-4.125,1.937
	c-15.851-0.406-12.37-5.646-13.317-10.76c-0.526-2.729,0.204-5.678-1.067-8.227c-1.867-4.51-3.827-9.121-4.18-14.039
	c0,0-59.093-3.699-96.005-6.306c-4.213-0.051-4.511,5.37-12.549,13.004c-1.435,0.573-3.129-0.212-4.188-1.169
	c-1.278-3.121-1.169-6.612-2.063-9.835c-1.15-1.922-55.861-5.208-58.359-5.176c-0.133-2.996-0.086-5.992-0.267-8.98
	c-0.078-2.22-0.996-4.643,0.463-6.604c3.971-0.818,37.135-2.268,47.967-1.537c-1.341-0.212-2.659-0.408-3.976-0.635
	c4.055-0.518,8.4,0.455,12.219-1.318c-0.047-1.71-0.274-3.396-0.784-5.019c-3.641-0.945-76.065-7.205-77.605-7.333
	c0.51-7.498,1.404-14.972,1.71-22.478c-3.96,2.784-32.826,40.188-64.547,15.662c-1.137-0.881-13.095-7.939-16.674-18.117
	c-4.8-0.588-9.623-0.91-14.454-1.02l-0.494-0.369c-56.745-2.375-31.681-6.969-41.097,9.686c-4.197,7.996-11.591,27.407-17.176,23.78
	c-2.924-6.492-7.42-14.087-6.557-37.693c-11.888-1.193-127.214-11.892-134.749-11.835c-1.231,6.016-1.216,12.455-4.133,18.007
	c-12.075,19.167-9.301,15.924-14.337,20.729c-0.855-0.737-1.686-1.451-2.525-2.172c-3.176-12.658-5.953-25.638-5.474-38.744
	c-5.851-0.498-26.316-2.808-38.077-2.4c0.463,2.243,3.137,2.768,4.659,4.172c0.024,0.376,0.078,1.122,0.102,1.498
	c-2.133-0.102-3.694-1.906-5.843-1.922c-0.275,0.494-0.808,1.482-1.075,1.976c-0.172,2.243,0.526,4.768-0.698,6.8
	c-8.931,13.388-4.667,11.772-18.392,26.493c-17.4,14.444-29.076,16.812-53.614,7.239c-8.725-6.745-12.67-9.9-21.309-21.937
	c-9.947-22.148-6.859-25.319-7.043-35.732c-0.6-11.716,5.164-30.748,5.325-31.748c0,0-118.629-15.777-118.694-15.772
	c0.337-0.118,1.012-0.361,1.349-0.478c-16.047-1.869-65.082-9.09-86.154-12.933c-5.051-1.741-10.235-3.843-15.701-2.886
	c-0.086,1.145-0.18,2.392-1.6,2.337c-0.541-1.318-1.122-2.604-1.749-3.867c-106.882-11.225-113.915-9.007-120.263-9.482
	c-6.227-8.658-4.333-11.751-6.69-22.007c-7.473-26.736-12.847-36.582-12.847-43.803c0.925-0.094,1.851-0.188,2.784-0.282
	c14.936,38.48,9.801,40.275,18.007,40.03c13.938-0.334,164.982,11.919,170.999,11.984c-1.067,0.227-2.125,0.463-3.184,0.698
	c0,0,269.972,12.969,487.193,3.718c-2.573-0.674-5.216-0.423-7.819-0.314l-0.008-0.526c13.827,1.365,27.654-0.643,41.489-0.714
	c-0.792-0.235-1.576-0.455-2.353-0.667c7.402,0.96,156.911-6.658,228.722-15.27c75.037-8.684,184.622-24.784,184.622-24.784
	c0.141-0.133,0.424-0.4,0.565-0.533c8.129-1.009,19.012-5.005,24.125-12.086c-0.591-126.429-6.687-141.966,58.147-263.819
	c15.915-25.674,17.107-21.252,44.908-45.434c13.375-12.537,22.86-9.568,42.524-9.811
	C1341.779,55.102,1334.336,56.09,1327.011,54.875z"/>
</svg>
